# ProBuilder 5.0.3
# https://unity3d.com/unity/features/worldbuilding/probuilder
# 27/04/2022 22:44:42

mtllib ./Manhole.mtl
o Manhole

g Manhole
v -0.6 -0.05 0
v -0.6 0.05 0
v -0.5868886 -0.05 0.124747
v -0.5868886 0.05 0.124747
v -0.5481273 -0.05 0.244042
v -0.5481273 0.05 0.244042
v -0.4854102 -0.05 0.3526711
v -0.4854102 0.05 0.3526711
v -0.4014784 -0.05 0.4458869
v -0.4014784 0.05 0.4458869
v -0.3 -0.05 0.5196153
v -0.3 0.05 0.5196153
v -0.1854102 -0.05 0.5706339
v -0.1854102 0.05 0.5706339
v -0.06271706 -0.05 0.5967132
v -0.06271706 0.05 0.5967132
v 0.06271711 -0.05 0.5967132
v 0.06271711 0.05 0.5967132
v 0.1854102 -0.05 0.5706339
v 0.1854102 0.05 0.5706339
v 0.3 -0.05 0.5196152
v 0.3 0.05 0.5196152
v 0.4014784 -0.05 0.4458869
v 0.4014784 0.05 0.4458869
v 0.4854102 -0.05 0.3526711
v 0.4854102 0.05 0.3526711
v 0.5481273 -0.05 0.244042
v 0.5481273 0.05 0.244042
v 0.5868886 -0.05 0.124747
v 0.5868886 0.05 0.124747
v 0.6 -0.05 -5.245367E-08
v 0.6 0.05 -5.245367E-08
v 0.5868886 -0.05 -0.1247471
v 0.5868886 0.05 -0.1247471
v 0.5481273 -0.05 -0.2440419
v 0.5481273 0.05 -0.2440419
v 0.4854102 -0.05 -0.3526711
v 0.4854102 0.05 -0.3526711
v 0.4014784 -0.05 -0.4458869
v 0.4014784 0.05 -0.4458869
v 0.3 -0.05 -0.5196153
v 0.3 0.05 -0.5196153
v 0.1854103 -0.05 -0.5706339
v 0.1854103 0.05 -0.5706339
v 0.06271701 -0.05 -0.5967132
v 0.06271701 0.05 -0.5967132
v -0.06271702 -0.05 -0.5967132
v -0.06271702 0.05 -0.5967132
v -0.1854103 -0.05 -0.5706339
v -0.1854103 0.05 -0.5706339
v -0.3 -0.05 -0.5196153
v -0.3 0.05 -0.5196153
v -0.4014785 -0.05 -0.4458869
v -0.4014785 0.05 -0.4458869
v -0.4854102 -0.05 -0.3526712
v -0.4854102 0.05 -0.3526712
v -0.5481274 -0.05 -0.2440419
v -0.5481274 0.05 -0.2440419
v -0.5868886 -0.05 -0.1247471
v -0.5868886 0.05 -0.1247471
v 0 -0.05 0
v 0 0.05 0

vt -0.06271695 -0.05
vt -0.06271695 0.05
vt 0.06271721 -0.05
vt 0.06271721 0.05
vt 0.03644159 0.5044416
vt 0.5044416 0.5044416
vt 0.04666853 0.6017443
vt 0.9724417 0.5044416
vt 0.9622147 0.6017443
vt 0.07690233 0.6947944
vt 0.9319809 0.6947944
vt 0.1258217 0.7795251
vt 0.8830615 0.7795251
vt 0.1912885 0.8522334
vt 0.8175947 0.8522334
vt 0.2704417 0.9097415
vt 0.7384416 0.9097415
vt 0.3598217 0.9495361
vt 0.6490616 0.9495361
vt 0.4555223 0.9698779
vt 0.5533609 0.9698779
vt 0.9622147 0.4071389
vt 0.04666853 0.4071389
vt 0.9319809 0.3140889
vt 0.07690233 0.3140889
vt 0.8830616 0.2293582
vt 0.1258217 0.2293582
vt 0.8175948 0.1566499
vt 0.1912884 0.1566499
vt 0.7384416 0.09914172
vt 0.2704417 0.09914172
vt 0.6490616 0.05934721
vt 0.3598216 0.05934721
vt 0.5533609 0.03900534
vt 0.4555224 0.03900534

vn -1 0 -2.210028E-07
vn -0.9781476 0 0.2079117
vn -0.9135454 0 0.4067368
vn -0.809017 0 0.5877852
vn -0.6691307 0 0.7431448
vn -0.5 0 0.8660254
vn -0.309017 0 0.9510565
vn -0.1045285 0 0.9945219
vn 0.1045286 0 0.9945219
vn 0.3090172 0 0.9510565
vn 0.4999999 0 0.8660254
vn 0.6691306 0 0.7431448
vn 0.8090172 0 0.587785
vn 0.9135454 0 0.4067367
vn 0.9781476 0 0.2079117
vn 1 0 -2.359861E-07
vn 0.9781476 0 -0.2079118
vn 0.9135454 0 -0.4067366
vn 0.8090172 0 -0.587785
vn 0.6691307 0 -0.7431448
vn 0.4999999 0 -0.8660255
vn 0.3090171 0 -0.9510565
vn 0.1045286 0 -0.9945219
vn -0.1045286 0 -0.9945219
vn -0.3090171 0 -0.9510565
vn -0.4999999 0 -0.8660255
vn -0.6691306 0 -0.7431448
vn -0.8090171 0 -0.5877851
vn -0.9135455 0 -0.4067365
vn -0.9781476 0 -0.2079116
vn 0 -1 0
vn 0 1 0

usemtl Manhole
f 1/5/31 61/6/31 3/7/31
f 3/7/31 61/6/31 5/10/31
f 5/10/31 61/6/31 7/12/31
f 7/12/31 61/6/31 9/14/31
f 9/14/31 61/6/31 11/16/31
f 11/16/31 61/6/31 13/18/31
f 13/18/31 61/6/31 15/20/31
f 15/20/31 61/6/31 17/21/31
f 17/21/31 61/6/31 19/19/31
f 19/19/31 61/6/31 21/17/31
f 21/17/31 61/6/31 23/15/31
f 23/15/31 61/6/31 25/13/31
f 25/13/31 61/6/31 27/11/31
f 27/11/31 61/6/31 29/9/31
f 29/9/31 61/6/31 31/8/31
f 31/8/31 61/6/31 33/22/31
f 33/22/31 61/6/31 35/24/31
f 35/24/31 61/6/31 37/26/31
f 37/26/31 61/6/31 39/28/31
f 39/28/31 61/6/31 41/30/31
f 41/30/31 61/6/31 43/32/31
f 43/32/31 61/6/31 45/34/31
f 45/34/31 61/6/31 47/35/31
f 47/35/31 61/6/31 49/33/31
f 49/33/31 61/6/31 51/31/31
f 51/31/31 61/6/31 53/29/31
f 53/29/31 61/6/31 55/27/31
f 55/27/31 61/6/31 57/25/31
f 57/25/31 61/6/31 59/23/31
f 59/23/31 61/6/31 1/5/31
f 4/9/32 62/6/32 2/8/32
f 6/11/32 62/6/32 4/9/32
f 8/13/32 62/6/32 6/11/32
f 10/15/32 62/6/32 8/13/32
f 12/17/32 62/6/32 10/15/32
f 14/19/32 62/6/32 12/17/32
f 16/21/32 62/6/32 14/19/32
f 18/20/32 62/6/32 16/21/32
f 20/18/32 62/6/32 18/20/32
f 22/16/32 62/6/32 20/18/32
f 24/14/32 62/6/32 22/16/32
f 26/12/32 62/6/32 24/14/32
f 28/10/32 62/6/32 26/12/32
f 30/7/32 62/6/32 28/10/32
f 32/5/32 62/6/32 30/7/32
f 34/23/32 62/6/32 32/5/32
f 36/25/32 62/6/32 34/23/32
f 38/27/32 62/6/32 36/25/32
f 40/29/32 62/6/32 38/27/32
f 42/31/32 62/6/32 40/29/32
f 44/33/32 62/6/32 42/31/32
f 46/35/32 62/6/32 44/33/32
f 48/34/32 62/6/32 46/35/32
f 50/32/32 62/6/32 48/34/32
f 52/30/32 62/6/32 50/32/32
f 54/28/32 62/6/32 52/30/32
f 56/26/32 62/6/32 54/28/32
f 58/24/32 62/6/32 56/26/32
f 60/22/32 62/6/32 58/24/32
f 2/8/32 62/6/32 60/22/32
f 4/4/2 2/2/1 1/1/1
f 1/1/1 3/3/2 4/4/2
f 6/4/3 4/2/2 3/1/2
f 3/1/2 5/3/3 6/4/3
f 8/4/4 6/2/3 5/1/3
f 5/1/3 7/3/4 8/4/4
f 10/4/5 8/2/4 7/1/4
f 7/1/4 9/3/5 10/4/5
f 12/4/6 10/2/5 9/1/5
f 9/1/5 11/3/6 12/4/6
f 14/4/7 12/2/6 11/1/6
f 11/1/6 13/3/7 14/4/7
f 16/4/8 14/2/7 13/1/7
f 13/1/7 15/3/8 16/4/8
f 18/4/9 16/2/8 15/1/8
f 15/1/8 17/3/9 18/4/9
f 20/4/10 18/2/9 17/1/9
f 17/1/9 19/3/10 20/4/10
f 22/4/11 20/2/10 19/1/10
f 19/1/10 21/3/11 22/4/11
f 24/4/12 22/2/11 21/1/11
f 21/1/11 23/3/12 24/4/12
f 26/4/13 24/2/12 23/1/12
f 23/1/12 25/3/13 26/4/13
f 28/4/14 26/2/13 25/1/13
f 25/1/13 27/3/14 28/4/14
f 30/4/15 28/2/14 27/1/14
f 27/1/14 29/3/15 30/4/15
f 32/4/16 30/2/15 29/1/15
f 29/1/15 31/3/16 32/4/16
f 34/4/17 32/2/16 31/1/16
f 31/1/16 33/3/17 34/4/17
f 36/4/18 34/2/17 33/1/17
f 33/1/17 35/3/18 36/4/18
f 38/4/19 36/2/18 35/1/18
f 35/1/18 37/3/19 38/4/19
f 40/4/20 38/2/19 37/1/19
f 37/1/19 39/3/20 40/4/20
f 42/4/21 40/2/20 39/1/20
f 39/1/20 41/3/21 42/4/21
f 44/4/22 42/2/21 41/1/21
f 41/1/21 43/3/22 44/4/22
f 46/4/23 44/2/22 43/1/22
f 43/1/22 45/3/23 46/4/23
f 48/4/24 46/2/23 45/1/23
f 45/1/23 47/3/24 48/4/24
f 50/4/25 48/2/24 47/1/24
f 47/1/24 49/3/25 50/4/25
f 52/4/26 50/2/25 49/1/25
f 49/1/25 51/3/26 52/4/26
f 54/4/27 52/2/26 51/1/26
f 51/1/26 53/3/27 54/4/27
f 56/4/28 54/2/27 53/1/27
f 53/1/27 55/3/28 56/4/28
f 58/4/29 56/2/28 55/1/28
f 55/1/28 57/3/29 58/4/29
f 60/4/30 58/2/29 57/1/29
f 57/1/29 59/3/30 60/4/30
f 2/4/1 60/2/30 59/1/30
f 59/1/30 1/3/1 2/4/1

