# ProBuilder 5.0.3
# https://unity3d.com/unity/features/worldbuilding/probuilder
# 21/02/2022 14:29:47

mtllib ./Icicle.mtl
o Icicle

g Icicle
v -0.25 -1.192093E-07 0
v -0.2165063 -1.192093E-07 0.125
v 0 2 0
v 0 -1.192093E-07 0
v -0.125 -1.192093E-07 0.2165065
v 7.450581E-09 -1.192093E-07 0.25
v 0.125 -1.192093E-07 0.2165065
v 0.2165063 -1.192093E-07 0.125
v 0.25 -1.192093E-07 0
v 0.2165063 -1.192093E-07 -0.125
v 0.125 -1.192093E-07 -0.2165065
v 0 -1.192093E-07 -0.25
v -0.125 -1.192093E-07 -0.2165065
v -0.2165063 -1.192093E-07 -0.125

vt 0 0
vt 0.258819 0
vt 0.1294096 2.057487
vt -0.25 0
vt -0.2165063 0.125
vt -0.125 0.2165065
vt 7.450581E-09 0.25
vt 0.125 0.2165065
vt 0.2165063 0.125
vt 0.25 0
vt 0.2165063 -0.125
vt 0.125 -0.2165065
vt 0 -0.25
vt -0.125 -0.2165065
vt -0.2165063 -0.125

vn -0.9922779 0.1240347 -1.233509E-07
vn -0.859338 0.1240347 0.4961387
vn 4.143695E-08 1 4.143695E-08
vn 0 -1 0
vn -0.4961388 0.1240348 0.8593379
vn 0 0.1240347 0.9922779
vn 0.4961389 0.1240348 0.8593379
vn 0.859338 0.1240347 0.4961386
vn 0.9922779 0.1240347 0
vn 0.859338 0.1240347 -0.4961388
vn 0.4961388 0.1240348 -0.8593379
vn 0 0.1240347 -0.9922779
vn -0.4961389 0.1240348 -0.8593379
vn -0.859338 0.1240347 -0.4961387

usemtl Icicle
f 1/1/1 2/2/2 3/3/3
f 4/1/4 2/5/4 1/4/4
f 2/1/2 5/2/5 3/3/3
f 4/1/4 5/6/4 2/5/4
f 5/1/5 6/2/6 3/3/3
f 4/1/4 6/7/4 5/6/4
f 6/1/6 7/2/7 3/3/3
f 4/1/4 7/8/4 6/7/4
f 7/1/7 8/2/8 3/3/3
f 4/1/4 8/9/4 7/8/4
f 8/1/8 9/2/9 3/3/3
f 4/1/4 9/10/4 8/9/4
f 9/1/9 10/2/10 3/3/3
f 4/1/4 10/11/4 9/10/4
f 10/1/10 11/2/11 3/3/3
f 4/1/4 11/12/4 10/11/4
f 11/1/11 12/2/12 3/3/3
f 4/1/4 12/13/4 11/12/4
f 12/1/12 13/2/13 3/3/3
f 4/1/4 13/14/4 12/13/4
f 13/1/13 14/2/14 3/3/3
f 4/1/4 14/15/4 13/14/4
f 14/1/14 1/2/1 3/3/3
f 4/1/4 1/4/4 14/15/4

