# ProBuilder 5.0.3
# https://unity3d.com/unity/features/worldbuilding/probuilder
# 24/03/2022 11:55:07

mtllib ./Metal_Beam.mtl
o Metal Beam

g Metal Beam
v 0.32 -6 0.05
v -0.32 -6 0.05
v 0.32 6 0.05
v -0.32 6 0.05
v -0.5 -6 0.05
v -0.5 -6 -0.05
v -0.5 6 0.05
v -0.5 6 -0.05
v -0.32 -6 -0.05
v 0.32 -6 -0.05
v -0.32 6 -0.05
v 0.32 6 -0.05
v 0.5 -6 -0.05
v 0.5 -6 0.05
v 0.5 6 -0.05
v 0.5 6 0.05
v -0.41 6 0.4
v -0.41 -6 0.4
v -0.49 6 0.4
v -0.49 -6 0.4
v -0.41 -6 -0.4
v -0.41 6 -0.4
v -0.49 -6 -0.4
v -0.49 6 -0.4
v 0.41 6 -0.4
v 0.41 -6 -0.4
v 0.49 6 -0.4
v 0.49 -6 -0.4
v 0.41 -6 0.4
v 0.41 6 0.4
v 0.49 -6 0.4
v 0.49 6 0.4
v -0.4 -6 -0.13
v -0.4 6 -0.13
v -0.4 -6 -0.39
v -0.4 6 -0.39
v -0.5 6 -0.39
v -0.5 -6 -0.39
v 0.4 6 -0.13
v 0.4 -6 -0.13
v 0.4 6 -0.39
v 0.4 -6 -0.39
v 0.5 -6 -0.39
v 0.5 6 -0.39
v 0.4 -6 0.13
v 0.4 6 0.13
v 0.4 -6 0.39
v 0.4 6 0.39
v 0.5 6 0.39
v 0.5 -6 0.39
v -0.4 6 0.13
v -0.4 -6 0.13
v -0.4 6 0.39
v -0.4 -6 0.39
v -0.5 -6 0.39
v -0.5 6 0.39
v 0.3541421 -6 -0.06414214
v 0.3541421 6 -0.06414214
v 0.3858579 -6 -0.09585787
v 0.3858579 6 -0.09585787
v -0.3541421 6 -0.06414213
v -0.3541421 -6 -0.06414213
v -0.3858579 6 -0.09585787
v -0.3858579 -6 -0.09585787
v 0.3541421 6 0.06414213
v 0.3541421 -6 0.06414213
v 0.3858579 6 0.09585787
v 0.3858579 -6 0.09585787
v -0.3541421 -6 0.06414214
v -0.3541421 6 0.06414214
v -0.3858579 -6 0.09585787
v -0.3858579 6 0.09585787
v 0.4141421 -6 0.09585787
v 0.46 -6 0.05
v 0.36 -6 0.05
v 0.4141421 6 0.09585787
v 0.36 6 0.05
v 0.46 6 0.05
v -0.4141421 -6 0.09585787
v -0.36 -6 0.05
v -0.46 -6 0.05
v -0.4141421 6 0.09585787
v -0.46 6 0.05
v -0.36 6 0.05
v -0.4141421 -6 -0.09585787
v -0.46 -6 -0.05
v -0.36 -6 -0.05
v -0.4141421 6 -0.09585787
v -0.36 6 -0.05
v -0.46 6 -0.05
v 0.4141421 -6 -0.09585787
v 0.36 -6 -0.05
v 0.46 -6 -0.05
v 0.4141421 6 -0.09585787
v 0.46 6 -0.05
v 0.36 6 -0.05

vt 0.32 -6
vt -0.32 -6
vt 0.32 6
vt -0.32 6
vt 0.05 -6
vt -0.05 -6
vt 0.05 6
vt -0.05 6
vt -0.41 6
vt -0.41 -6
vt -0.49 6
vt -0.49 -6
vt 0.41 -6
vt 0.41 6
vt 0.49 -6
vt 0.49 6
vt 0.13 -6
vt 0.13 6
vt 0.39 -6
vt 0.39 6
vt -0.39 6
vt -0.39 -6
vt -0.13 6
vt -0.13 -6
vt -0.2957717 -6
vt -0.2957717 6
vt -0.3406245 -6
vt -0.3406245 6
vt 0.2957717 6
vt 0.2957717 -6
vt 0.3406245 6
vt 0.3406245 -6
vt 0.2731777 -6
vt 0.2731777 6
vt 0.2362225 -6
vt 0.2362225 6
vt 0.3147756 6
vt 0.3147756 -6
vt 0.3517308 6
vt 0.3517308 -6
vt -0.3147756 -6
vt -0.3147756 6
vt -0.3517308 -6
vt -0.3517308 6
vt -0.2731777 6
vt -0.2731777 -6
vt -0.2362225 6
vt -0.2362225 -6
vt 0.3858579 0.09585787
vt 0.4141421 0.09585787
vt 0.46 0.05
vt 0.36 0.05
vt 0.3541421 0.06414214
vt -0.4141421 0.09585787
vt -0.3858579 0.09585787
vt -0.3541421 0.06414214
vt -0.36 0.05
vt -0.46 0.05
vt -0.3858579 -0.09585787
vt -0.4141421 -0.09585787
vt -0.46 -0.05
vt -0.36 -0.05
vt -0.3541421 -0.06414214
vt 0.4141421 -0.09585787
vt 0.3858579 -0.09585787
vt 0.3541421 -0.06414214
vt 0.36 -0.05
vt 0.46 -0.05
vt 0.4 0.13
vt -0.4 0.13
vt -0.32 0.05
vt 0.32 0.05
vt -0.4 -0.13
vt 0.4 -0.13
vt 0.32 -0.05
vt -0.32 -0.05
vt 0.5727565 -6
vt 0.5727565 6
vt 0.5586144 -6
vt 0.5586144 6
vt 0.06363961 6
vt 0.06363961 -6
vt 0.07778174 6
vt 0.07778174 -6
vt -0.5727565 6
vt -0.5727565 -6
vt -0.5586144 6
vt -0.5586144 -6
vt -0.06363961 -6
vt -0.06363961 6
vt -0.07778174 -6
vt -0.07778174 6
vt -0.4 -0.39
vt -0.41 -0.4
vt -0.49 -0.4
vt -0.5 -0.39
vt -0.5 -0.05
vt 0.5 -0.05
vt 0.5 -0.39
vt 0.49 -0.4
vt 0.41 -0.4
vt 0.4 -0.39
vt -0.5 0.05
vt -0.5 0.39
vt -0.49 0.4
vt -0.41 0.4
vt -0.4 0.39
vt 0.4 0.39
vt 0.41 0.4
vt 0.49 0.4
vt 0.5 0.39
vt 0.5 0.05

vn -0.1950902 0 0.9807853
vn 0.1950903 0 0.9807853
vn -1 0 0
vn 0.1950902 0 -0.9807853
vn -0.1950903 0 -0.9807853
vn 1 0 0
vn 0.3826834 0 0.9238795
vn -0.3826834 0 0.9238795
vn 0.3826834 0 -0.9238795
vn -0.3826834 0 -0.9238795
vn 0.9807853 0 -0.1950902
vn 0.9238795 0 -0.3826834
vn -0.9238795 0 -0.3826834
vn -0.9807853 0 -0.1950902
vn -0.9807853 0 0.1950902
vn -0.9238795 0 0.3826834
vn 0.9238795 0 0.3826834
vn 0.9807853 0 0.1950902
vn -0.5555701 0 -0.8314697
vn -0.8314696 0 -0.5555703
vn 0.5555701 0 -0.8314697
vn 0.8314696 0 -0.5555702
vn -0.5555701 0 0.8314697
vn -0.8314696 0 0.5555702
vn 0.5555701 0 0.8314697
vn 0.8314696 0 0.5555703
vn 0 -1 0
vn 0 1 0

usemtl Metal
f 75/52/27 74/51/27 73/50/27
f 75/52/27 73/50/27 68/49/27
f 75/52/27 68/49/27 66/53/27
f 65/56/28 67/55/28 77/57/28
f 67/55/28 76/54/28 77/57/28
f 76/54/28 78/58/28 77/57/28
f 71/55/27 80/57/27 69/56/27
f 80/57/27 71/55/27 79/54/27
f 80/57/27 79/54/27 81/58/27
f 83/51/28 82/50/28 84/52/28
f 82/50/28 72/49/28 84/52/28
f 70/53/28 84/52/28 72/49/28
f 64/59/27 62/63/27 87/62/27
f 85/60/27 64/59/27 87/62/27
f 85/60/27 87/62/27 86/61/27
f 90/68/28 89/67/28 88/64/28
f 89/67/28 63/65/28 88/64/28
f 89/67/28 61/66/28 63/65/28
f 92/67/27 91/64/27 93/68/27
f 92/67/27 59/65/27 91/64/27
f 57/66/27 59/65/27 92/67/27
f 96/62/28 60/59/28 58/63/28
f 94/60/28 60/59/28 96/62/28
f 95/61/28 94/60/28 96/62/28
f 45/69/27 68/49/27 73/50/27
f 76/54/28 67/55/28 46/70/28
f 3/71/28 65/56/28 77/57/28
f 75/52/27 66/53/27 1/72/27
f 2/71/27 69/56/27 80/57/27
f 84/52/28 70/53/28 4/72/28
f 51/69/28 72/49/28 82/50/28
f 79/54/27 71/55/27 52/70/27
f 33/73/27 64/59/27 85/60/27
f 88/64/28 63/65/28 34/74/28
f 11/75/28 61/66/28 89/67/28
f 87/62/27 62/63/27 9/76/27
f 10/75/27 57/66/27 92/67/27
f 96/62/28 58/63/28 12/76/28
f 39/73/28 60/59/28 94/60/28
f 91/64/27 59/65/27 40/74/27
f 6/97/27 33/73/27 85/60/27
f 38/96/27 33/73/27 6/97/27
f 35/93/27 33/73/27 38/96/27
f 21/94/27 35/93/27 38/96/27
f 38/96/27 23/95/27 21/94/27
f 85/60/27 86/61/27 6/97/27
f 8/98/28 90/68/28 88/64/28
f 22/101/28 24/100/28 37/99/28
f 37/99/28 36/102/28 22/101/28
f 37/99/28 34/74/28 36/102/28
f 8/98/28 34/74/28 37/99/28
f 88/64/28 34/74/28 8/98/28
f 27/95/28 25/94/28 41/93/28
f 41/93/28 39/73/28 27/95/28
f 27/95/28 39/73/28 44/96/28
f 39/73/28 15/97/28 44/96/28
f 94/60/28 15/97/28 39/73/28
f 95/61/28 15/97/28 94/60/28
f 91/64/27 13/98/27 93/68/27
f 40/74/27 13/98/27 91/64/27
f 43/99/27 13/98/27 40/74/27
f 43/99/27 40/74/27 28/100/27
f 28/100/27 40/74/27 42/102/27
f 42/102/27 26/101/27 28/100/27
f 76/54/28 16/103/28 78/58/28
f 46/70/28 16/103/28 76/54/28
f 16/103/28 46/70/28 49/104/28
f 49/104/28 46/70/28 48/107/28
f 48/107/28 30/106/28 49/104/28
f 30/106/28 32/105/28 49/104/28
f 50/111/27 31/110/27 29/109/27
f 50/111/27 29/109/27 47/108/27
f 47/108/27 45/69/27 50/111/27
f 50/111/27 45/69/27 14/112/27
f 73/50/27 14/112/27 45/69/27
f 74/51/27 14/112/27 73/50/27
f 82/50/28 83/51/28 7/112/28
f 7/112/28 51/69/28 82/50/28
f 7/112/28 56/111/28 51/69/28
f 56/111/28 53/108/28 51/69/28
f 56/111/28 19/110/28 53/108/28
f 19/110/28 17/109/28 53/108/28
f 54/107/27 18/106/27 20/105/27
f 54/107/27 20/105/27 55/104/27
f 52/70/27 54/107/27 55/104/27
f 52/70/27 55/104/27 5/103/27
f 79/54/27 52/70/27 5/103/27
f 5/103/27 81/58/27 79/54/27
f 7/112/28 90/68/28 8/98/28
f 7/112/28 83/51/28 90/68/28
f 84/52/28 90/68/28 83/51/28
f 84/52/28 89/67/28 90/68/28
f 84/52/28 11/75/28 89/67/28
f 84/52/28 4/72/28 11/75/28
f 3/71/28 11/75/28 4/72/28
f 3/71/28 12/76/28 11/75/28
f 3/71/28 96/62/28 12/76/28
f 3/71/28 77/57/28 96/62/28
f 78/58/28 96/62/28 77/57/28
f 78/58/28 95/61/28 96/62/28
f 78/58/28 15/97/28 95/61/28
f 78/58/28 16/103/28 15/97/28
f 13/98/27 14/112/27 74/51/27
f 93/68/27 13/98/27 74/51/27
f 92/67/27 93/68/27 74/51/27
f 75/52/27 92/67/27 74/51/27
f 92/67/27 75/52/27 1/72/27
f 10/75/27 92/67/27 1/72/27
f 9/76/27 10/75/27 1/72/27
f 2/71/27 9/76/27 1/72/27
f 9/76/27 2/71/27 80/57/27
f 87/62/27 9/76/27 80/57/27
f 86/61/27 87/62/27 80/57/27
f 81/58/27 86/61/27 80/57/27
f 86/61/27 81/58/27 5/103/27
f 6/97/27 86/61/27 5/103/27
f 4/4/2 2/2/2 1/1/1
f 1/1/1 3/3/1 4/4/2
f 8/8/3 6/6/3 5/5/3
f 5/5/3 7/7/3 8/8/3
f 12/4/5 10/2/5 9/1/4
f 9/1/4 11/3/4 12/4/5
f 16/8/6 14/6/6 13/5/6
f 13/5/6 15/7/6 16/8/6
f 20/12/8 18/10/7 17/9/7
f 17/9/7 19/11/8 20/12/8
f 24/16/10 22/14/9 21/13/9
f 21/13/9 23/15/10 24/16/10
f 28/12/9 26/10/10 25/9/10
f 25/9/10 27/11/9 28/12/9
f 32/16/7 30/14/8 29/13/8
f 29/13/8 31/15/7 32/16/7
f 36/20/12 34/18/11 33/17/11
f 33/17/11 35/19/12 36/20/12
f 38/22/13 6/6/3 8/8/3
f 8/8/3 37/21/13 38/22/13
f 42/22/13 40/24/14 39/23/14
f 39/23/14 41/21/13 42/22/13
f 44/20/12 15/7/6 13/5/6
f 13/5/6 43/19/12 44/20/12
f 48/20/16 46/18/15 45/17/15
f 45/17/15 47/19/16 48/20/16
f 50/22/17 14/6/6 16/8/6
f 16/8/6 49/21/17 50/22/17
f 54/22/17 52/24/18 51/23/18
f 51/23/18 53/21/17 54/22/17
f 56/20/16 7/7/3 5/5/3
f 5/5/3 55/19/16 56/20/16
f 59/27/20 57/25/19 58/26/19
f 58/26/19 60/28/20 59/27/20
f 63/31/22 61/29/21 62/30/21
f 62/30/21 64/32/22 63/31/22
f 67/31/24 65/29/23 66/30/23
f 66/30/23 68/32/24 67/31/24
f 71/27/26 69/25/25 70/26/25
f 70/26/25 72/28/26 71/27/26
f 68/35/24 45/33/15 46/34/15
f 46/34/15 67/36/24 68/35/24
f 65/39/23 3/37/1 1/38/1
f 1/38/1 66/40/23 65/39/23
f 69/43/25 2/41/2 4/42/2
f 4/42/2 70/44/25 69/43/25
f 72/47/26 51/45/18 52/46/18
f 52/46/18 71/48/26 72/47/26
f 64/35/22 33/33/11 34/34/11
f 34/34/11 63/36/22 64/35/22
f 61/39/21 11/37/4 9/38/4
f 9/38/4 62/40/21 61/39/21
f 57/43/19 10/41/5 12/42/5
f 12/42/5 58/44/19 57/43/19
f 60/47/20 39/45/14 40/46/14
f 40/46/14 59/48/20 60/47/20
f 35/79/12 21/77/9 22/78/9
f 22/78/9 36/80/12 35/79/12
f 37/83/13 24/81/10 23/82/10
f 23/82/10 38/84/13 37/83/13
f 41/87/13 25/85/10 26/86/10
f 26/86/10 42/88/13 41/87/13
f 43/91/12 28/89/9 27/90/9
f 27/90/9 44/92/12 43/91/12
f 49/83/17 32/81/7 31/82/7
f 31/82/7 50/84/17 49/83/17
f 47/79/16 29/77/8 30/78/8
f 30/78/8 48/80/16 47/79/16
f 53/87/17 17/85/7 18/86/7
f 18/86/7 54/88/17 53/87/17
f 55/91/16 20/89/8 19/90/8
f 19/90/8 56/92/16 55/91/16

