# ProBuilder 5.0.3
# https://unity3d.com/unity/features/worldbuilding/probuilder
# 27/04/2022 23:18:52

mtllib ./Metal_Fence.mtl
o Metal_Fence

g Metal_Fence
v 0.025 -1 1
v -0.025 -1 1
v 0.025 1 1
v -0.025 1 1
v -0.001128197 -0.9507961 0.9507961
v -0.001128197 -0.9507961 -0.9507961
v -0.001128197 0.950796 0.9507961
v -0.001128197 0.950796 -0.9507961
v -0.025 -1 -1
v 0.025 -1 -1
v -0.025 1 -1
v 0.025 1 -1
v 0.001128197 -0.9507961 -0.9507961
v 0.001128197 -0.9507961 0.9507961
v 0.001128197 0.950796 -0.9507961
v 0.001128197 0.950796 0.9507961
v -0.02376986 -0.9507961 0.9507961
v -0.02376986 -0.9507961 -0.9507961
v -0.02376986 0.950796 0.9507961
v -0.02376986 0.950796 -0.9507961
v 0.02376986 -0.9507961 -0.9507961
v 0.02376986 -0.9507961 0.9507961
v 0.02376986 0.950796 -0.9507961
v 0.02376986 0.950796 0.9507961

vt 0.025 -1
vt -0.025 -1
vt 0.025 1
vt -0.025 1
vt 0.4753981 -0.4753981
vt -0.4753981 -0.4753981
vt 0.4753981 0.475398
vt -0.4753981 0.475398
vt 1 -1.000312
vt -1 -1.000312
vt 0.9507961 -0.9510932
vt -0.9507961 -0.9510932
vt 1.000312 1
vt 0.9510932 0.950796
vt 0.9510932 -0.9507961
vt -1.000312 1
vt -0.9510932 -0.9507961
vt -0.9510932 0.950796
vt -0.9507961 0.9510931
vt 0.9507961 0.9510931
vt 0.02376986 0.9507961
vt 0.02376986 -0.9507961
vt 0.001128197 0.9507961
vt 0.001128197 -0.9507961
vt -0.02376986 -0.9507961
vt -0.02376986 0.950796
vt -0.001128197 -0.9507961
vt -0.001128197 0.950796

vn 0 0 1
vn -1 0 0
vn 0 0 -1
vn 1 0 0
vn 0 1 0
vn 0 -1 0
vn -0.9996876 0.02499317 0
vn -0.9996876 0 -0.02499317
vn -0.9996876 0 0.02499317
vn -0.9996876 -0.02499311 0
vn 0.9996876 0.02499317 0
vn 0.9996876 0 0.02499317
vn 0.9996876 0 -0.02499317
vn 0.9996876 -0.02499311 0

usemtl Metal_Fence_Rust
f 3/3/1 4/4/1 2/2/1 1/1/1
f 11/3/3 12/4/3 10/2/3 9/1/3
f 12/2/5 11/1/5 4/3/5 3/4/5
f 1/3/6 2/4/6 9/2/6 10/1/6
f 17/11/7 18/12/7 9/10/7 2/9/7
f 19/14/8 17/15/8 2/9/8 4/13/8
f 18/17/9 20/18/9 11/16/9 9/10/9
f 20/19/10 19/20/10 4/13/10 11/16/10
f 21/11/11 22/12/11 1/10/11 10/9/11
f 23/14/12 21/15/12 10/9/12 12/13/12
f 22/17/13 24/18/13 3/16/13 1/10/13
f 24/19/14 23/20/14 12/13/14 3/16/14
f 5/23/5 6/24/5 18/22/5 17/21/5
f 7/23/3 5/24/3 17/22/3 19/21/3
f 6/27/1 8/28/1 20/26/1 18/25/1
f 8/27/6 7/28/6 19/26/6 20/25/6
f 13/27/5 14/28/5 22/26/5 21/25/5
f 15/23/1 13/24/1 21/22/1 23/21/1
f 14/27/3 16/28/3 24/26/3 22/25/3
f 16/23/6 15/24/6 23/22/6 24/21/6

usemtl Metal_Fence
f 7/7/2 8/8/2 6/6/2 5/5/2
f 15/7/4 16/8/4 14/6/4 13/5/4

