# ProBuilder 5.0.3
# https://unity3d.com/unity/features/worldbuilding/probuilder
# 06/04/2022 14:43:36

mtllib ./Pipe_Wall_Ring.mtl
o Pipe_Wall_Ring

g Ring
v -10.6 1.206398E-06 -9.536745E-07
v -10.4695 -1.658205 -9.536743E-07
v -5 1.192093E-06 -9.536745E-07
v -4.938442 -0.7821715 -9.536743E-07
v -10.0812 -3.27558 -1.964569E-06
v -4.755283 -1.545085 -9.536743E-07
v -9.444669 -4.8123 -1.964569E-06
v -4.455033 -2.269952 -1.907349E-06
v -8.57558 -6.230524 -1.964569E-06
v -4.045085 -2.938926 -1.907349E-06
v -7.495331 -7.495333 -1.964569E-06
v -3.535534 -3.535534 -1.907349E-06
v -6.230524 -8.575582 -1.964569E-06
v -2.938927 -4.045085 -1.907349E-06
v -4.812299 -9.444672 -1.964569E-06
v -2.269953 -4.455033 -1.907349E-06
v -3.27558 -10.0812 -1.964569E-06
v -1.545085 -4.755283 -1.907349E-06
v -1.658206 -10.4695 -1.964569E-06
v -0.7821724 -4.938442 -1.907349E-06
v 4.633407E-07 -10.6 -1.964569E-06
v 2.185569E-07 -5 -1.907349E-06
v 1.658205 -10.4695 -1.964569E-06
v 0.7821723 -4.938442 -1.907349E-06
v 3.275579 -10.0812 -1.964569E-06
v 1.545085 -4.755283 -1.907349E-06
v 4.812298 -9.444672 -1.964569E-06
v 2.269952 -4.455033 -1.907349E-06
v 6.230523 -8.575582 -1.964569E-06
v 2.938926 -4.045085 -1.907349E-06
v 7.495331 -7.495333 -1.964569E-06
v 3.535534 -3.535534 -1.907349E-06
v 8.575581 -6.230523 -1.964569E-06
v 4.045085 -2.938926 -1.907349E-06
v 9.444668 -4.8123 -1.964569E-06
v 4.455032 -2.269952 -1.907349E-06
v 10.0812 -3.275581 -1.964569E-06
v 4.755282 -1.545085 -9.536743E-07
v 10.4695 -1.658205 -9.536743E-07
v 4.938442 -0.7821714 -9.536743E-07
v 10.6 2.13308E-06 -9.536745E-07
v 5 1.629207E-06 -9.536745E-07
v 10.4695 1.658206 -9.536743E-07
v 4.938442 0.7821735 -9.536743E-07
v 10.0812 3.275582 -9.536743E-07
v 4.755283 1.545087 -9.536743E-07
v 9.444669 4.812303 -9.536743E-07
v 4.455033 2.269955 -9.536743E-07
v 8.575581 6.230525 -9.536743E-07
v 4.045085 2.938928 -9.536743E-07
v 7.495332 7.495335 5.72204E-08
v 3.535534 3.535536 -9.536743E-07
v 6.230525 8.575582 5.72204E-08
v 2.938927 4.045086 -9.536743E-07
v 4.812301 9.444672 5.72204E-08
v 2.269953 4.455036 -9.536743E-07
v 3.275581 10.0812 5.72204E-08
v 1.545086 4.755285 -9.536743E-07
v 1.658206 10.4695 5.72204E-08
v 0.7821725 4.938444 -9.536743E-07
v -1.264037E-07 10.6 5.72204E-08
v -5.96244E-08 5.000003 -9.536743E-07
v -1.658206 10.4695 5.72204E-08
v -0.7821726 4.938444 -9.536743E-07
v -3.275581 10.0812 5.72204E-08
v -1.545086 4.755285 -9.536743E-07
v -4.812296 9.444674 5.72204E-08
v -2.269951 4.455036 -9.536743E-07
v -6.230521 8.575584 5.72204E-08
v -2.938925 4.045088 -9.536743E-07
v -7.49533 7.495337 5.72204E-08
v -3.535533 3.535537 -9.536743E-07
v -8.57558 6.230527 -9.536743E-07
v -4.045085 2.938929 -9.536743E-07
v -9.444669 4.812302 -9.536743E-07
v -4.455033 2.269955 -9.536743E-07
v -10.0812 3.275582 -9.536743E-07
v -4.755283 1.545087 -9.536743E-07
v -10.4695 1.658206 -9.536743E-07
v -4.938442 0.7821733 -9.536743E-07

vt 21.2 10.6
vt 21.0695 8.941796
vt 15.6 10.6
vt 15.53844 9.81783
vt 20.6812 7.324421
vt 15.35528 9.054916
vt 20.04467 5.787702
vt 15.05503 8.33005
vt 19.17558 4.369478
vt 14.64508 7.661076
vt 18.09533 3.104668
vt 14.13553 7.064467
vt 16.83052 2.02442
vt 13.53893 6.554916
vt 15.4123 1.15533
vt 12.86995 6.144968
vt 13.87558 0.5187998
vt 12.14508 5.844718
vt 12.25821 0.1305037
vt 11.38217 5.661559
vt 10.6 0
vt 10.6 5.600001
vt 8.941794 0.1305037
vt 9.817827 5.661559
vt 7.32442 0.5187998
vt 9.054914 5.844718
vt 5.787701 1.15533
vt 8.330048 6.144968
vt 4.369477 2.02442
vt 7.661074 6.554916
vt 3.104668 3.104668
vt 7.064466 7.064467
vt 2.024419 4.369478
vt 6.554914 7.661076
vt 1.155332 5.787701
vt 6.144967 8.33005
vt 0.5188017 7.324421
vt 5.844717 9.054916
vt 0.1305037 8.941797
vt 5.661558 9.81783
vt 0 10.6
vt 5.599999 10.6
vt 0.1305037 12.25821
vt 5.661558 11.38217
vt 0.5188007 13.87558
vt 5.844717 12.14509
vt 1.155331 15.4123
vt 6.144967 12.86996
vt 2.024419 16.83053
vt 6.554914 13.53893
vt 3.104668 18.09534
vt 7.064466 14.13554
vt 4.369474 19.17558
vt 7.661073 14.64509
vt 5.787699 20.04467
vt 8.330046 15.05504
vt 7.324419 20.6812
vt 9.054914 15.35529
vt 8.941793 21.0695
vt 9.817827 15.53844
vt 10.6 21.2
vt 10.6 15.6
vt 12.25821 21.0695
vt 11.38217 15.53844
vt 13.87558 20.6812
vt 12.14509 15.35529
vt 15.4123 20.04468
vt 12.86995 15.05504
vt 16.83052 19.17559
vt 13.53893 14.64509
vt 18.09533 18.09534
vt 14.13553 14.13554
vt 19.17558 16.83053
vt 14.64508 13.53893
vt 20.04467 15.4123
vt 15.05503 12.86996
vt 20.6812 13.87558
vt 15.35528 12.14509
vt 21.0695 12.25821
vt 15.53844 11.38217

vn -3.502713E-22 -1.371203E-13 -1

usemtl ProBuilder_Default_URP
f 3/3/1 4/4/1 2/2/1 1/1/1
f 4/4/1 6/6/1 5/5/1 2/2/1
f 6/6/1 8/8/1 7/7/1 5/5/1
f 8/8/1 10/10/1 9/9/1 7/7/1
f 10/10/1 12/12/1 11/11/1 9/9/1
f 12/12/1 14/14/1 13/13/1 11/11/1
f 14/14/1 16/16/1 15/15/1 13/13/1
f 16/16/1 18/18/1 17/17/1 15/15/1
f 18/18/1 20/20/1 19/19/1 17/17/1
f 20/20/1 22/22/1 21/21/1 19/19/1
f 22/22/1 24/24/1 23/23/1 21/21/1
f 24/24/1 26/26/1 25/25/1 23/23/1
f 26/26/1 28/28/1 27/27/1 25/25/1
f 28/28/1 30/30/1 29/29/1 27/27/1
f 30/30/1 32/32/1 31/31/1 29/29/1
f 32/32/1 34/34/1 33/33/1 31/31/1
f 34/34/1 36/36/1 35/35/1 33/33/1
f 36/36/1 38/38/1 37/37/1 35/35/1
f 38/38/1 40/40/1 39/39/1 37/37/1
f 40/40/1 42/42/1 41/41/1 39/39/1
f 42/42/1 44/44/1 43/43/1 41/41/1
f 44/44/1 46/46/1 45/45/1 43/43/1
f 46/46/1 48/48/1 47/47/1 45/45/1
f 48/48/1 50/50/1 49/49/1 47/47/1
f 50/50/1 52/52/1 51/51/1 49/49/1
f 52/52/1 54/54/1 53/53/1 51/51/1
f 54/54/1 56/56/1 55/55/1 53/53/1
f 56/56/1 58/58/1 57/57/1 55/55/1
f 58/58/1 60/60/1 59/59/1 57/57/1
f 60/60/1 62/62/1 61/61/1 59/59/1
f 62/62/1 64/64/1 63/63/1 61/61/1
f 64/64/1 66/66/1 65/65/1 63/63/1
f 66/66/1 68/68/1 67/67/1 65/65/1
f 68/68/1 70/70/1 69/69/1 67/67/1
f 70/70/1 72/72/1 71/71/1 69/69/1
f 72/72/1 74/74/1 73/73/1 71/71/1
f 74/74/1 76/76/1 75/75/1 73/73/1
f 76/76/1 78/78/1 77/77/1 75/75/1
f 78/78/1 80/80/1 79/79/1 77/77/1
f 80/80/1 3/3/1 1/1/1 79/79/1

