# ProBuilder 5.0.3
# https://unity3d.com/unity/features/worldbuilding/probuilder
# 12/03/2022 11:59:49

mtllib ./Pipe.mtl
o Pipe

g Pipe
v -5 1.907349E-06 -20
v -5 -1.907349E-06 20
v -4.975924 -0.4900837 -20
v -4.975924 -0.4900875 20
v -4.903926 -0.9754505 -20
v -4.903926 -0.9754543 20
v -4.784702 -1.451422 -20
v -4.784702 -1.451426 20
v -4.619398 -1.913416 -20
v -4.619398 -1.91342 20
v -4.409606 -2.356981 -20
v -4.409606 -2.356985 20
v -4.157348 -2.777849 -20
v -4.157348 -2.777853 20
v -3.865052 -3.171965 -20
v -3.865052 -3.171968 20
v -3.535534 -3.535532 -20
v -3.535534 -3.535536 20
v -3.171966 -3.865051 -20
v -3.171966 -3.865055 20
v -2.777851 -4.157347 -20
v -2.777851 -4.157351 20
v -2.356984 -4.409605 -20
v -2.356984 -4.409609 20
v -1.913417 -4.619396 -20
v -1.913417 -4.6194 20
v -1.451423 -4.7847 -20
v -1.451423 -4.784704 20
v -0.9754518 -4.903925 -20
v -0.9754518 -4.903929 20
v -0.4900857 -4.975922 -20
v -0.4900857 -4.975925 20
v 2.185569E-07 -4.999998 -20
v 2.185569E-07 -5.000002 20
v 0.4900855 -4.975922 -20
v 0.4900855 -4.975925 20
v 0.9754516 -4.903925 -20
v 0.9754516 -4.903929 20
v 1.451424 -4.7847 -20
v 1.451424 -4.784704 20
v 1.913417 -4.619396 -20
v 1.913417 -4.6194 20
v 2.356983 -4.409605 -20
v 2.356983 -4.409609 20
v 2.777851 -4.157347 -20
v 2.777851 -4.157351 20
v 3.171966 -3.865051 -20
v 3.171966 -3.865055 20
v 3.535534 -3.535532 -20
v 3.535534 -3.535536 20
v 3.865052 -3.171965 -20
v 3.865052 -3.171968 20
v 4.157348 -2.777849 -20
v 4.157348 -2.777853 20
v 4.409606 -2.356983 -20
v 4.409606 -2.356987 20
v 4.619398 -1.913416 -20
v 4.619398 -1.91342 20
v 4.784702 -1.451422 -20
v 4.784702 -1.451426 20
v 4.903926 -0.9754505 -20
v 4.903926 -0.9754543 20
v 4.975924 -0.4900837 -20
v 4.975924 -0.4900875 20
v 5 1.907349E-06 -20
v 5 -1.907349E-06 20
v 4.975924 0.4900875 -20
v 4.975924 0.4900837 20
v 4.903926 0.9754524 -20
v 4.903926 0.9754486 20
v 4.784702 1.451426 -20
v 4.784702 1.451422 20
v 4.619398 1.91342 -20
v 4.619398 1.913416 20
v 4.409606 2.356987 -20
v 4.409606 2.356983 20
v 4.157348 2.777853 -20
v 4.157348 2.777849 20
v 3.865053 3.171968 -20
v 3.865053 3.171965 20
v 3.535534 3.535536 -20
v 3.535534 3.535532 20
v 3.171967 3.865055 -20
v 3.171967 3.865051 20
v 2.777852 4.157349 -20
v 2.777852 4.157346 20
v 2.356983 4.409609 -20
v 2.356983 4.409605 20
v 1.913418 4.6194 -20
v 1.913418 4.619396 20
v 1.451423 4.784704 -20
v 1.451423 4.7847 20
v 0.9754519 4.903929 -20
v 0.9754519 4.903925 20
v 0.490087 4.975925 -20
v 0.490087 4.975922 20
v -5.96244E-08 5.000002 -20
v -5.96244E-08 4.999998 20
v -0.4900848 4.975925 -20
v -0.4900848 4.975922 20
v -0.9754521 4.903929 -20
v -0.9754521 4.903925 20
v -1.451423 4.784704 -20
v -1.451423 4.7847 20
v -1.913418 4.6194 -20
v -1.913418 4.619396 20
v -2.356984 4.409609 -20
v -2.356984 4.409605 20
v -2.77785 4.157351 -20
v -2.77785 4.157347 20
v -3.171967 3.865055 -20
v -3.171967 3.865051 20
v -3.535533 3.535538 -20
v -3.535533 3.535534 20
v -3.865053 3.171968 -20
v -3.865053 3.171965 20
v -4.157348 2.777853 -20
v -4.157348 2.777849 20
v -4.409606 2.356987 -20
v -4.409606 2.356983 20
v -4.619398 1.91342 -20
v -4.619398 1.913416 20
v -4.784701 1.451426 -20
v -4.784701 1.451422 20
v -4.903926 0.9754524 -20
v -4.903926 0.9754486 20
v -4.975924 0.4900875 -20
v -4.975924 0.4900837 20

vt 23.53553 20
vt -16.46447 20
vt 23.53553 20.49009
vt -16.46447 20.49009
vt 23.53553 20.97545
vt -16.46447 20.97545
vt 23.53553 21.45142
vt -16.46447 21.45142
vt 23.53553 21.91342
vt -16.46447 21.91342
vt 23.53553 22.35698
vt -16.46447 22.35698
vt 23.53553 22.77785
vt -16.46447 22.77785
vt 23.53553 23.17197
vt -16.46447 23.17197
vt 23.53553 23.53553
vt -16.46447 23.53553
vt 23.53553 16.46447
vt -16.46447 16.46447
vt 23.53553 16.82803
vt -16.46447 16.82803
vt 23.53553 17.22215
vt -16.46447 17.22215
vt 23.53553 17.64301
vt -16.46447 17.64302
vt 23.53553 18.08658
vt -16.46447 18.08658
vt 23.53553 18.54858
vt -16.46447 18.54858
vt 23.53553 19.02455
vt -16.46447 19.02455
vt 23.53553 19.50991
vt -16.46447 19.50991

vn 1 0 0
vn 0.9951848 0.09801704 9.347633E-09
vn 0.9807854 0.1950901 1.860524E-08
vn 0.9569404 0.2902847 2.76837E-08
vn 0.9238794 0.3826838 3.649557E-08
vn 0.8819212 0.4713969 4.49559E-08
vn 0.8314698 0.5555699 5.298327E-08
vn 0.7730104 0.6343933 6.050045E-08
vn 0.707107 0.7071065 6.743492E-08
vn 0.6343935 0.7730103 7.371999E-08
vn 0.5555702 0.8314697 7.929511E-08
vn 0.4713967 0.8819213 8.410656E-08
vn 0.3826833 0.9238796 8.810802E-08
vn 0.2902847 0.9569404 9.126093E-08
vn 0.1950897 0.9807854 9.353499E-08
vn 0.09801666 0.9951848 9.490821E-08
vn -2.797337E-08 1 9.536742E-08
vn -0.09801669 0.9951848 9.490821E-08
vn -0.1950895 0.9807855 9.353497E-08
vn -0.2902848 0.9569404 9.126093E-08
vn -0.3826837 0.9238794 8.810801E-08
vn -0.4713967 0.8819213 8.410656E-08
vn -0.5555698 0.8314699 7.929513E-08
vn -0.6343934 0.7730104 7.372E-08
vn -0.707107 0.7071065 6.743493E-08
vn -0.7730104 0.6343933 6.050045E-08
vn -0.8314695 0.5555704 5.298331E-08
vn -0.8819211 0.4713971 4.495592E-08
vn -0.9238796 0.3826834 3.649554E-08
vn -0.9569404 0.2902847 2.76837E-08
vn -0.9807854 0.1950901 1.860524E-08
vn -0.9951848 0.09801704 9.347633E-09
vn -1 0 0
vn -0.9951847 -0.09801733 -9.34766E-09
vn -0.9807854 -0.1950899 -1.860522E-08
vn -0.9569405 -0.2902842 -2.768366E-08
vn -0.9238796 -0.3826834 -3.649554E-08
vn -0.8819209 -0.4713975 -4.495596E-08
vn -0.8314696 -0.5555702 -5.29833E-08
vn -0.7730108 -0.6343929 -6.050041E-08
vn -0.707107 -0.7071065 -6.743493E-08
vn -0.6343927 -0.7730109 -7.372007E-08
vn -0.5555704 -0.8314695 -6.426461E-08
vn -0.4713975 -0.8819209 -7.89879E-08
vn -0.3826834 -0.9238796 -8.810802E-08
vn -0.2902845 -0.9569404 -9.126094E-08
vn -0.19509 -0.9807854 -9.353497E-08
vn -0.09801677 -0.9951848 -9.49082E-08
vn 1.193531E-07 -1 -9.536742E-08
vn 0.09801653 -0.9951848 -9.49082E-08
vn 0.1950896 -0.9807854 -9.353498E-08
vn 0.2902845 -0.9569404 -9.126094E-08
vn 0.3826834 -0.9238796 -8.810802E-08
vn 0.4713973 -0.8819209 -8.410652E-08
vn 0.5555699 -0.8314698 -7.929513E-08
vn 0.6343925 -0.7730111 -7.372007E-08
vn 0.7071069 -0.7071066 -6.743494E-08
vn 0.7730109 -0.6343927 -6.05004E-08
vn 0.8314698 -0.5555698 -5.298326E-08
vn 0.8819211 -0.4713971 -4.495593E-08
vn 0.9238796 -0.3826834 -3.649553E-08
vn 0.9569405 -0.2902842 -2.768366E-08
vn 0.9807853 -0.1950904 -1.860526E-08
vn 0.9951847 -0.09801733 -9.34766E-09

usemtl Sewer
f 1/1/1 2/2/1 4/4/2 3/3/2
f 3/3/2 4/4/2 6/6/3 5/5/3
f 5/5/3 6/6/3 8/8/4 7/7/4
f 7/7/4 8/8/4 10/10/5 9/9/5
f 9/9/5 10/10/5 12/12/6 11/11/6
f 11/11/6 12/12/6 14/14/7 13/13/7
f 13/13/7 14/14/7 16/16/8 15/15/8
f 15/15/8 16/16/8 18/18/9 17/17/9
f 17/19/9 18/20/9 20/22/10 19/21/10
f 19/21/10 20/22/10 22/24/11 21/23/11
f 21/23/11 22/24/11 24/26/12 23/25/12
f 23/25/12 24/26/12 26/28/13 25/27/13
f 25/27/13 26/28/13 28/30/14 27/29/14
f 27/29/14 28/30/14 30/32/15 29/31/15
f 29/31/15 30/32/15 32/34/16 31/33/16
f 31/33/16 32/34/16 34/2/17 33/1/17
f 33/1/17 34/2/17 36/4/18 35/3/18
f 35/3/18 36/4/18 38/6/19 37/5/19
f 37/5/19 38/6/19 40/8/20 39/7/20
f 39/7/20 40/8/20 42/10/21 41/9/21
f 41/9/21 42/10/21 44/12/22 43/11/22
f 43/11/22 44/12/22 46/14/23 45/13/23
f 45/13/23 46/14/23 48/16/24 47/15/24
f 47/15/24 48/16/24 50/18/25 49/17/25
f 49/19/25 50/20/25 52/22/26 51/21/26
f 51/21/26 52/22/26 54/24/27 53/23/27
f 53/23/27 54/24/27 56/26/28 55/25/28
f 55/25/28 56/26/28 58/28/29 57/27/29
f 57/27/29 58/28/29 60/30/30 59/29/30
f 59/29/30 60/30/30 62/32/31 61/31/31
f 61/31/31 62/32/31 64/34/32 63/33/32
f 63/33/32 64/34/32 66/2/33 65/1/33
f 65/1/33 66/2/33 68/4/34 67/3/34
f 67/3/34 68/4/34 70/6/35 69/5/35
f 69/5/35 70/6/35 72/8/36 71/7/36
f 71/7/36 72/8/36 74/10/37 73/9/37
f 73/9/37 74/10/37 76/12/38 75/11/38
f 75/11/38 76/12/38 78/14/39 77/13/39
f 77/13/39 78/14/39 80/16/40 79/15/40
f 79/15/40 80/16/40 82/18/41 81/17/41
f 81/19/41 82/20/41 84/22/42 83/21/42
f 83/21/42 84/22/42 86/24/43 85/23/43
f 85/23/43 86/24/43 88/26/44 87/25/44
f 87/25/44 88/26/44 90/28/45 89/27/45
f 89/27/45 90/28/45 92/30/46 91/29/46
f 91/29/46 92/30/46 94/32/47 93/31/47
f 93/31/47 94/32/47 96/34/48 95/33/48
f 95/33/48 96/34/48 98/2/49 97/1/49
f 97/1/49 98/2/49 100/4/50 99/3/50
f 99/3/50 100/4/50 102/6/51 101/5/51
f 101/5/51 102/6/51 104/8/52 103/7/52
f 103/7/52 104/8/52 106/10/53 105/9/53
f 105/9/53 106/10/53 108/12/54 107/11/54
f 107/11/54 108/12/54 110/14/55 109/13/55
f 109/13/55 110/14/55 112/16/56 111/15/56
f 111/15/56 112/16/56 114/18/57 113/17/57
f 113/19/57 114/20/57 116/22/58 115/21/58
f 115/21/58 116/22/58 118/24/59 117/23/59
f 117/23/59 118/24/59 120/26/60 119/25/60
f 119/25/60 120/26/60 122/28/61 121/27/61
f 121/27/61 122/28/61 124/30/62 123/29/62
f 123/29/62 124/30/62 126/32/63 125/31/63
f 125/31/63 126/32/63 128/34/64 127/33/64
f 127/33/64 128/34/64 2/2/1 1/1/1

